<svg width="27" height="43" viewBox="0 0 27 43" fill="none" xmlns="http://www.w3.org/2000/svg">
            <path
              d="M19.0002 3.50071L18.3556 2.14824L17.121 2.99716C14.3308 4.9156 12.7053 7.18448 12.2895 9.74069C11.7162 13.2663 13.7201 15.9734 13.8057 16.0869L14.407 16.8845L15.3265 16.4945C15.4573 16.4389 18.5464 15.0965 19.8127 11.7565C20.7307 9.33487 20.4574 6.5572 19.0002 3.50071Z"
              fill="#BDEA9C" />
            <path
              d="M14.4069 16.8845L15.3265 16.4945C15.4573 16.4389 18.5463 15.0965 19.8126 11.7565C20.7308 9.33494 20.4574 6.55718 19.0003 3.50076L18.3555 2.14819"
              fill="#A2DBB1" />
            <path
              d="M15.7921 11.2901C14.879 9.24527 12.8535 7.80226 9.7756 7.00465L8.55805 6.68883L8.22182 7.90092C7.44409 10.7044 7.68253 13.0181 8.93057 14.7779C10.0698 16.3841 11.7835 17.1052 12.9793 17.4256C13.7431 17.6303 14.2959 17.6715 14.3522 17.6752L15.1885 17.7307L15.5734 16.9861C15.6338 16.869 17.0409 14.0866 15.7921 11.2901Z"
              fill="#BDEA9C" />
            <path
              d="M15.1884 17.7306L15.5733 16.986C15.6338 16.8689 17.0408 14.0866 15.7921 11.29C14.879 9.24518 12.8534 7.80218 9.77559 7.00456L8.55804 6.68875"
              fill="#A2DBB1" />
            <path
              d="M13.3069 17.2265L14.059 17.5966C14.1095 17.6214 14.6088 17.8622 15.3726 18.0669C16.5685 18.3873 18.4131 18.6197 20.2029 17.7982C22.1636 16.8984 23.527 15.0138 24.2551 12.197L24.5699 10.9792L18.3302 12.1267L13.3069 17.2265Z"
              fill="#A2DBB1" />
            <path
              d="M13.3069 17.2265L13.3459 16.3892C13.352 16.2575 13.5247 13.1445 16.0044 11.3469C17.8176 10.0326 20.2932 9.7957 23.3575 10.6439L24.5698 10.9791"
              fill="#BDEA9C" />
            <path
              d="M14.8659 15.1713C11.9137 14.3803 8.8682 16.1386 8.07713 19.0909C7.79545 20.1421 5.61818 34.823 5.53101 35.1828C4.98336 37.2267 6.20063 39.335 8.24448 39.8827C10.2883 40.4303 12.3967 39.2131 12.9423 37.1766C13.0487 36.8138 18.5037 23.0112 18.7853 21.96C19.5765 19.0078 17.8182 15.9624 14.8659 15.1713Z"
              fill="#FFAD41" />
            <path
              d="M8.24451 39.8827C10.2884 40.4304 12.3967 39.2131 12.9423 37.1766C13.0488 36.8139 18.5037 23.0113 18.7854 21.9601C19.5764 19.0078 17.8181 15.9623 14.8658 15.1713"
              fill="#FF9811" />
          </svg>